<?xml version="1.0" encoding="utf-8"?>
<!-- Generator: Adobe Illustrator 16.0.4, SVG Export Plug-In . SVG Version: 6.00 Build 0)  -->
<!DOCTYPE svg PUBLIC "-//W3C//DTD SVG 1.1//EN" "http://www.w3.org/Graphics/SVG/1.1/DTD/svg11.dtd">
<svg version="1.1" xmlns="http://www.w3.org/2000/svg" xmlns:xlink="http://www.w3.org/1999/xlink" x="0px" y="0px" width="286px"
	 height="217px" viewBox="0 0 286 217" enable-background="new 0 0 286 217" xml:space="preserve">
<g id="Layer_1" display="none">
	<g display="inline">
		<defs>
			<rect id="SVGID_1_" width="286" height="217"/>
		</defs>
		<clipPath id="SVGID_2_">
			<use xlink:href="#SVGID_1_"  overflow="visible"/>
		</clipPath>
		<rect opacity="0" clip-path="url(#SVGID_2_)" fill-rule="evenodd" clip-rule="evenodd" fill="#FFFFFF" width="286" height="217"/>
		<rect clip-path="url(#SVGID_2_)" fill-rule="evenodd" clip-rule="evenodd" fill="#FFFFFF" width="286" height="217"/>
	</g>
	<g display="inline">
		<defs>
			<rect id="SVGID_3_" width="286" height="217"/>
		</defs>
		<clipPath id="SVGID_4_">
			<use xlink:href="#SVGID_3_"  overflow="visible"/>
		</clipPath>
		
			<rect x="34.276" y="13" clip-path="url(#SVGID_4_)" fill-rule="evenodd" clip-rule="evenodd" fill="#FFFFFF" width="238.724" height="191"/>
	</g>
	<g display="inline">
		<defs>
			<rect id="SVGID_5_" width="286" height="217"/>
		</defs>
		<clipPath id="SVGID_6_">
			<use xlink:href="#SVGID_5_"  overflow="visible"/>
		</clipPath>
		<path clip-path="url(#SVGID_6_)" fill="none" stroke="#989898" stroke-linejoin="round" stroke-miterlimit="10" d="M34,13h239
			 M34,32h239 M34,51h239 M34,70h239 M34,89h239 M34,109h239 M34,128h239 M34,147h239 M34,166h239 M34,185h239 M34,204h239"/>
	</g>
	<g display="inline">
		<defs>
			<rect id="SVGID_7_" width="286" height="217"/>
		</defs>
		<clipPath id="SVGID_8_">
			<use xlink:href="#SVGID_7_"  overflow="visible"/>
		</clipPath>
		
			<line clip-path="url(#SVGID_8_)" fill="none" stroke="#989898" stroke-linejoin="round" stroke-miterlimit="10" x1="34.276" y1="204" x2="34.276" y2="13"/>
	</g>
	<g display="inline">
		<defs>
			<rect id="SVGID_9_" width="286" height="217"/>
		</defs>
		<clipPath id="SVGID_10_">
			<use xlink:href="#SVGID_9_"  overflow="visible"/>
		</clipPath>
		<path clip-path="url(#SVGID_10_)" fill="none" stroke="#989898" stroke-linejoin="round" stroke-miterlimit="10" d="M31,13h3
			 M31,32h3 M31,51h3 M31,70h3 M31,89h3 M31,109h3 M31,128h3 M31,147h3 M31,166h3 M31,185h3 M31,204h3"/>
	</g>
	<g display="inline">
		<defs>
			<rect id="SVGID_11_" width="286" height="217"/>
		</defs>
		<clipPath id="SVGID_12_">
			<use xlink:href="#SVGID_11_"  overflow="visible"/>
		</clipPath>
		<g clip-path="url(#SVGID_12_)">
			<text transform="matrix(1 0 0 1 7 208)" font-family="'Calibri'" font-size="10">0.00</text>
		</g>
	</g>
	<g display="inline">
		<defs>
			<rect id="SVGID_13_" width="286" height="217"/>
		</defs>
		<clipPath id="SVGID_14_">
			<use xlink:href="#SVGID_13_"  overflow="visible"/>
		</clipPath>
		<g clip-path="url(#SVGID_14_)">
			<text transform="matrix(1 0 0 1 7 188.9004)" font-family="'Calibri'" font-size="10">0.10</text>
		</g>
	</g>
	<g display="inline">
		<defs>
			<rect id="SVGID_15_" width="286" height="217"/>
		</defs>
		<clipPath id="SVGID_16_">
			<use xlink:href="#SVGID_15_"  overflow="visible"/>
		</clipPath>
		<g clip-path="url(#SVGID_16_)">
			<text transform="matrix(1 0 0 1 7 169.7998)" font-family="'Calibri'" font-size="10">0.20</text>
		</g>
	</g>
	<g display="inline">
		<defs>
			<rect id="SVGID_17_" width="286" height="217"/>
		</defs>
		<clipPath id="SVGID_18_">
			<use xlink:href="#SVGID_17_"  overflow="visible"/>
		</clipPath>
		<g clip-path="url(#SVGID_18_)">
			<text transform="matrix(1 0 0 1 7 150.7002)" font-family="'Calibri'" font-size="10">0.30</text>
		</g>
	</g>
	<g display="inline">
		<defs>
			<rect id="SVGID_19_" width="286" height="217"/>
		</defs>
		<clipPath id="SVGID_20_">
			<use xlink:href="#SVGID_19_"  overflow="visible"/>
		</clipPath>
		<g clip-path="url(#SVGID_20_)">
			<text transform="matrix(1 0 0 1 7 131.5996)" font-family="'Calibri'" font-size="10">0.40</text>
		</g>
	</g>
	<g display="inline">
		<defs>
			<rect id="SVGID_21_" width="286" height="217"/>
		</defs>
		<clipPath id="SVGID_22_">
			<use xlink:href="#SVGID_21_"  overflow="visible"/>
		</clipPath>
		<g clip-path="url(#SVGID_22_)">
			<text transform="matrix(1 0 0 1 7 112.5)" font-family="'Calibri'" font-size="10">0.50</text>
		</g>
	</g>
	<g display="inline">
		<defs>
			<rect id="SVGID_23_" width="286" height="217"/>
		</defs>
		<clipPath id="SVGID_24_">
			<use xlink:href="#SVGID_23_"  overflow="visible"/>
		</clipPath>
		<g clip-path="url(#SVGID_24_)">
			<text transform="matrix(1 0 0 1 7 93.4004)" font-family="'Calibri'" font-size="10">0.60</text>
		</g>
	</g>
	<g display="inline">
		<defs>
			<rect id="SVGID_25_" width="286" height="217"/>
		</defs>
		<clipPath id="SVGID_26_">
			<use xlink:href="#SVGID_25_"  overflow="visible"/>
		</clipPath>
		<g clip-path="url(#SVGID_26_)">
			<text transform="matrix(1 0 0 1 7 74.2998)" font-family="'Calibri'" font-size="10">0.70</text>
		</g>
	</g>
	<g display="inline">
		<defs>
			<rect id="SVGID_27_" width="286" height="217"/>
		</defs>
		<clipPath id="SVGID_28_">
			<use xlink:href="#SVGID_27_"  overflow="visible"/>
		</clipPath>
		<g clip-path="url(#SVGID_28_)">
			<text transform="matrix(1 0 0 1 7 55.2002)" font-family="'Calibri'" font-size="10">0.80</text>
		</g>
	</g>
	<g display="inline">
		<defs>
			<rect id="SVGID_29_" width="286" height="217"/>
		</defs>
		<clipPath id="SVGID_30_">
			<use xlink:href="#SVGID_29_"  overflow="visible"/>
		</clipPath>
		<g clip-path="url(#SVGID_30_)">
			<text transform="matrix(1 0 0 1 7 36.0996)" font-family="'Calibri'" font-size="10">0.90</text>
		</g>
	</g>
	<g display="inline">
		<defs>
			<rect id="SVGID_31_" width="286" height="217"/>
		</defs>
		<clipPath id="SVGID_32_">
			<use xlink:href="#SVGID_31_"  overflow="visible"/>
		</clipPath>
		<g clip-path="url(#SVGID_32_)">
			<text transform="matrix(1 0 0 1 7 17)" font-family="'Calibri'" font-size="10">1.00</text>
		</g>
	</g>
</g>
<g id="Layer_2">
	<g display="none">
		<defs>
			<rect id="SVGID_33_" x="34" y="13" width="239" height="191"/>
		</defs>
		<clipPath id="SVGID_34_" display="inline">
			<use xlink:href="#SVGID_33_"  overflow="visible"/>
		</clipPath>
		<rect x="58" y="106" display="inline" clip-path="url(#SVGID_34_)" fill="#5586B6" width="32" height="98"/>
	</g>
	<g display="none">
		<defs>
			<rect id="SVGID_35_" x="34" y="13" width="239" height="191"/>
		</defs>
		<clipPath id="SVGID_36_" display="inline">
			<use xlink:href="#SVGID_35_"  overflow="visible"/>
		</clipPath>
		<rect x="90" y="68" display="inline" clip-path="url(#SVGID_36_)" fill="#BA5B54" width="32" height="136"/>
	</g>
	<g display="none">
		<defs>
			<rect id="SVGID_37_" x="34" y="13" width="239" height="191"/>
		</defs>
		<clipPath id="SVGID_38_" display="inline">
			<use xlink:href="#SVGID_37_"  overflow="visible"/>
		</clipPath>
		<rect x="122" y="113" display="inline" clip-path="url(#SVGID_38_)" fill="#9AB260" width="32" height="91"/>
	</g>
	<g>
		<defs>
			<rect id="SVGID_39_" x="34" y="13" width="239" height="191"/>
		</defs>
		<clipPath id="SVGID_40_">
			<use xlink:href="#SVGID_39_"  overflow="visible"/>
		</clipPath>
		<rect x="154" y="121" clip-path="url(#SVGID_40_)" fill="#856EA0" width="31" height="83"/>
	</g>
	<g display="none">
		<defs>
			<rect id="SVGID_41_" x="34" y="13" width="239" height="191"/>
		</defs>
		<clipPath id="SVGID_42_" display="inline">
			<use xlink:href="#SVGID_41_"  overflow="visible"/>
		</clipPath>
		<rect x="185" y="131" display="inline" clip-path="url(#SVGID_42_)" fill="#4FA8BD" width="32" height="73"/>
	</g>
	<g display="none">
		<defs>
			<rect id="SVGID_43_" x="34" y="13" width="239" height="191"/>
		</defs>
		<clipPath id="SVGID_44_" display="inline">
			<use xlink:href="#SVGID_43_"  overflow="visible"/>
		</clipPath>
		<rect x="217" y="125" display="inline" clip-path="url(#SVGID_44_)" fill="#E3964D" width="32" height="79"/>
	</g>
</g>
</svg>
