<?xml version="1.0" encoding="utf-8"?>
<!-- Generator: Adobe Illustrator 16.0.4, SVG Export Plug-In . SVG Version: 6.00 Build 0)  -->
<!DOCTYPE svg PUBLIC "-//W3C//DTD SVG 1.1//EN" "http://www.w3.org/Graphics/SVG/1.1/DTD/svg11.dtd">
<svg version="1.1" xmlns="http://www.w3.org/2000/svg" xmlns:xlink="http://www.w3.org/1999/xlink" x="0px" y="0px" width="456px"
	 height="334px" viewBox="0 0 456 334" enable-background="new 0 0 456 334" xml:space="preserve">
<g id="Layer_2">
	<path fill="none" stroke="#989898" stroke-linejoin="round" stroke-miterlimit="10" d="M219,174V62 M219,174l-61-94 M219,174
		l-102-46 M219,174l-111,16 M219,174l-85,73 M219,174l-32,107 M219,174l31,107 M219,174l84,73 M219,174l110,16 M219,174l101-46
		 M219,174l60-94 M219,174V62"/>
	<path fill="none" stroke="#989898" stroke-linejoin="round" stroke-miterlimit="10" d="M159,80l60-18 M117,128l42-48 M108,190l9-62
		 M134,247l-26-57 M187,281l-53-34 M250,281h-63 M303,247l-53,34 M329,190l-26,57 M320,128l9,62 M279,80l41,48 M219,62l60,18
		 M166,92l53-16 M130,134l36-42 M122,188l8-54 M145,238l-23-50 M191,268l-46-30 M246,268h-55 M293,238l-47,30 M316,188l-23,50
		 M308,134l8,54 M272,92l36,42 M219,76l53,16 M174,104l45-14 M143,139l31-35 M136,186l7-47 M156,229l-20-43 M195,254l-39-25
		 M242,254h-47 M282,229l-40,25 M302,186l-20,43 M295,139l7,47 M264,104l31,35 M219,90l45,14 M181,115l38-11 M155,145l26-30
		 M150,184l5-39 M166,220l-16-36 M199,241l-33-21 M239,241h-40 M272,220l-33,21 M288,184l-16,36 M282,145l6,39 M257,115l25,30
		 M219,104l38,11 M189,127l30-9 M168,151l21-24 M164,182l4-31 M177,211l-13-29 M203,228l-26-17 M235,228h-32 M261,211l-26,17
		 M274,182l-13,29 M270,151l4,31 M249,127l21,24 M219,118l30,9 M196,139l23-7 M181,157l15-18 M177,180l4-23 M187,202l-10-22
		 M207,214l-20-12 M231,214h-24 M251,202l-20,12 M260,180l-9,22 M257,157l3,23 M242,139l15,18 M219,132l23,7 M204,151l15-5 M193,163
		l11-12 M191,178l2-15 M198,192l-7-14 M211,201l-13-9 M227,201h-16 M240,192l-13,9 M247,178l-7,14 M244,163l3,15 M234,151l10,12
		 M219,146l15,5 M211,162l8-2 M206,168l5-6 M205,176l1-8 M208,183l-3-7 M215,188l-7-5 M223,188h-8 M229,183l-6,5 M233,176l-4,7
		 M232,168l1,8 M226,162l6,6 M219,160l7,2"/>
</g>
<g id="Layer_1" display="none">
	
		<path display="inline" fill="none" stroke="#5183B5" stroke-width="2.25" stroke-linecap="round" stroke-linejoin="round" stroke-miterlimit="10" d="
		M188,149l25-5 M176,175l12-26 M169,218l7-43 M209,230l-40-12 M246,228l-37,2 M284,216l-38,12 M306,178l-22,38 M292,138l14,40
		 M260,116l32,22 M228,95l32,21 M213,144l15-49"/>
	
		<path display="inline" fill="none" stroke="#B85750" stroke-width="2.25" stroke-linecap="round" stroke-linejoin="round" stroke-miterlimit="10" d="
		M195,152l15-12 M187,173l8-21 M225,170l-38,3 M200,260.748L225,170 M242,215l-42,45.748 M232,171l10,44 M320.726,180L232,171
		 M283,142l37.726,38 M282,83l1,59 M228,68l54,15 M210,140l18-72"/>
	
		<path display="inline" fill="none" stroke="#97B15C" stroke-width="2.25" stroke-linecap="round" stroke-linejoin="round" stroke-miterlimit="10" d="
		M203,156l11-10 M204,171l-1-15 M215,178l-11-7 M222,186l-7-8 M238,202l-16-16 M252,188l-14,14 M275,174l-23,14 M278.664,144
		L275,174 M261,115l17.664,29 M228,101l33,14 M214,146l14-45"/>
	
		<path display="inline" fill="none" stroke="#826A9F" stroke-width="2.25" stroke-linecap="round" stroke-linejoin="round" stroke-miterlimit="10" d="
		M224,165l1-3 M212,169l12-4 M222,172l-10-3 M228,167l-6,5 M234,188.556L228,167 M244,181l-10,7.556 M228,167l16,14 M271,148l-43,19
		 M271.574,99L271,148 M228,106l43.574-7 M225,162l3-56"/>
	
		<path display="inline" fill="none" stroke="#4AA6BC" stroke-width="2.25" stroke-linecap="round" stroke-linejoin="round" stroke-miterlimit="10" d="
		M221,164l1-6 M217,169l4-5 M191,199l26-30 M226,173l-35,26 M232,183l-6-10 M266,200l-34-17 M241,169l25,31 M238,163l3,6 M243,143
		l-5,20 M228,114l15,29 M222,158l6-44"/>
	
		<path display="inline" fill="none" stroke="#E39446" stroke-width="2.25" stroke-linecap="round" stroke-linejoin="round" stroke-miterlimit="10" d="
		M224,165l1-2 M219,168l5-3 M225,170l-6-2 M226,173l-1-3 M231,176l-5-3 M241,178.734L231,176 M240,169l1,9.734 M233,165l7,4
		 M241,147l-8,18 M228,109l13,38 M225,163l3-54"/>
</g>
</svg>
